<?xml version="1.0" encoding="UTF-8"?><svg id="Layer_1" xmlns="http://www.w3.org/2000/svg" viewBox="0 0 19.58 25"><defs><style>.cls-1{fill:#fff;}</style></defs><path class="cls-1" d="m14.04.05c-.3-.22-.89.35-.83.59.24.94,1.2,1,1.82,1.77.5.61.61,1.41.33,2.04.08.06.16.11.24.17.38-1.74-.2-3.57-1.56-4.57Z"/><path class="cls-1" d="m13,22.18c1.12.59,2.25,1.22,2.64,2.62.23-1.2-.36-2.1-1.1-2.92-.17-.19-.35-.37-.54-.53-.49.23-.99.42-1.52.57.17.09.35.18.52.27Z"/><path class="cls-1" d="m4.87,21.06h.16s-.07-.04-.11-.06c-.02.02-.04.04-.06.06Z"/><path class="cls-1" d="m14.42,3.35c.19,0,.45.07.45-.25,0-.26-.2-.34-.42-.34-1.26,0-2.51,0-3.77,0,.91.08,1.78.29,2.59.6.38,0,.77,0,1.15,0Z"/><path class="cls-1" d="m3.78.96c.07,1.34.57,2.21,1.31,2.96.41-.22.83-.42,1.27-.58-.96-.59-1.84-1.33-2.57-2.38Z"/><path class="cls-1" d="m6.52,2.75c.14.15.28.28.43.38.63-.19,1.29-.32,1.96-.38-.8,0-1.59,0-2.39,0Z"/><path class="cls-1" d="m3.97,21.55c.11-.33.27-.62.45-.87-.16-.1-.32-.21-.47-.33-.15.37-.27.74.01,1.19Z"/><path class="cls-1" d="m3.86,21.89c-.07,2.34.65,3.44,2.87,3.02-1.33-.82-2.59-1.46-2.87-3.02Z"/><path class="cls-1" d="m13.97,24.02c-2.49,0-4.97,0-7.46,0-.01.11-.03.21-.04.32,2.76.67,5.59.1,8.42.34-.05-.75-.52-.66-.91-.66Z"/><path class="cls-1" d="m5.22,1.56c2.58-.02,5.17,0,7.75,0,0-.12,0-.24,0-.36-2.79-.6-5.63-.1-8.45-.3.05.52.27.67.7.67Z"/><path class="cls-1" d="m12.83,22.6c-2.74-.55-5.5-.19-8.44-.33.66.6,6.21.79,8.44.33Z"/><path class="cls-1" d="m19.58,12.5c0-3.23-1.57-6.1-3.99-7.88-.2.9-.65,1.78-1.4,2.51-.93.9-2.02,1.56-3.16,2.14-1.11.56-2.22,1.11-3.34,1.64-1.46.69-2.88,1.42-3.85,3.09-.07-1.42.55-2.27,1.3-3.03,1.13-1.14,2.54-1.87,3.97-2.59,1.72-.87,3.56-1.52,5.11-2.7,0,0,.59-.52.78-.7.16-.15.27-.33.36-.52-.64-.45-1.34-.82-2.09-1.1-1.89,0-3.78,0-5.67,0-.25,0-.46-.08-.65-.22-.2.06-.4.13-.59.2,1.86,1.15,3.99,1.75,5.73,3-.96.77-1.84.93-2.96.27-1.37-.81-2.81-1.48-3.96-2.6-.03-.03-.05-.05-.08-.08C2.06,5.57,0,8.8,0,12.5c0,3.22,1.56,6.08,3.96,7.86.01-.03.02-.06.04-.09.48-1.17,1.36-1.98,2.36-2.69,1.75-1.25,3.75-2.03,5.66-3,1.05-.53,2.11-1.04,2.91-1.95.87-1.01.86-1.79.1-2.78-.34-.44-2.19-.95-1.79-1.34.83-.8,1.1-.81,1.81.29,1.28,1.96.9,4.39-.98,6.07-1.43,1.29-3.16,2.09-4.87,2.9-1.25.59-2.52,1.14-3.67,1.91-.42.28-.8.59-1.1,1,.16.11.33.21.5.31.7-.77,3.22-.76,4.5.06h-4.39c1.41.78,3.03,1.23,4.75,1.23.93,0,1.83-.13,2.69-.38-1.69-.87-3.42-1.69-5.2-2.56.95-.75,1.77-1.08,2.91-.42,1.31.76,2.68,1.4,3.81,2.41,3.3-1.57,5.58-4.94,5.58-8.84ZM9.93,4.48c1.53,0,2.91,0,4.28,0,.46,0,.42.34.28.42-1.17.45-3.54.29-4.56-.41Zm-5.41,12.47c-.47-.67-.91-1.36-.58-2.36.38,1.21,1.33,1.77,2.21,2.39-.92.98-.92.98-1.63-.03Zm.28-1.69h4.4c-.77.65-3.49.71-4.4,0Zm6.85-1.24c-2.35,0-4.69,0-7.1,0,.02-.62.39-.63.8-.63,2.52,0,5.04,0,7.69,0-.43.47-.86.63-1.38.63Zm3.22-2.15c-.04.38-.38.33-.65.33-2.55,0-5.09,0-7.87,0,.61-.46,1.01-.64,1.52-.63,2.14.02,4.27,0,6.41.02.21,0,.64-.22.59.28Zm-.19-2.01s0,0,0,0c-.03.56-.33.65-.85.63-1.24-.05-2.48-.02-3.9-.02.49-.47.93-.64,1.47-.63,1.09.02,2.18.01,3.27.02Z"/><path class="cls-1" d="m9.79,2.71c-.3,0-.59.02-.88.04.59,0,1.18,0,1.76,0-.29-.03-.59-.04-.88-.04Z"/></svg>