<?xml version="1.0" encoding="UTF-8"?>
<svg id="Layer_1" xmlns="http://www.w3.org/2000/svg" baseProfile="tiny" version="1.2" viewBox="0 0 150 150">
  <!-- Generator: Adobe Illustrator 29.7.1, SVG Export Plug-In . SVG Version: 2.1.1 Build 8)  -->
  <path d="M135.19,75.01c0-17.67-7.9-34.54-21.31-45.92,1-10.89-3.36-21.37-11.72-27.52-2.93-2.16-6.87-2.08-10.27.21-1.37.93-2.75,2.29-3.7,3.94-8.22-1.12-16.35-.93-24.25-.73-5.99.15-11.64.3-17.3-.09-1.05-.07-2.07.12-3.02.52-1.17-.27-2.41-.24-3.61.17-2.81.96-4.64,3.66-4.49,6.62.27,5.32,1.61,9.94,4.1,14.13-15.46,11.24-24.8,29.27-24.8,48.67,0,17.44,7.72,34.12,20.82,45.5-.11,1.32-.01,2.79.45,4.34-.1.44-.17.88-.19,1.35-.18,6.11.29,14.84,6.36,20.02,2.95,2.52,6.77,3.78,11.39,3.78,1.81,0,3.75-.19,5.81-.59,1.34-.25,2.53-.91,3.45-1.83,7.38.9,14.68.7,21.8.5,6.09-.17,11.85-.34,17.59.16.19.02.38.02.57.02.35,0,.7-.05,1.04-.1.92.48,1.96.74,3.04.74.09,0,.19,0,.28,0,3.08-.13,5.67-2.36,6.25-5.4,1.48-7.78-1.44-13.83-4.99-18.52,16.44-11.07,26.69-29.86,26.69-49.99Z" fill="#fff"/>
  <g>
    <path d="M98.22,6.92c-1.64-1.2-4.89,1.89-4.55,3.24,1.32,5.16,6.54,5.48,9.94,9.67,2.71,3.34,3.31,7.69,1.82,11.13.44.31.88.61,1.31.93,2.1-9.54-1.12-19.53-8.52-24.97Z" fill="#135591"/>
    <path d="M92.53,127.94c6.11,3.21,12.31,6.69,14.43,14.33,1.24-6.55-1.99-11.5-6.02-15.99-.93-1.04-1.92-2-2.94-2.92-2.65,1.26-5.43,2.31-8.3,3.13.94.49,1.89.96,2.83,1.45Z" fill="#135591"/>
    <path d="M48.1,121.81h.9c-.2-.11-.39-.22-.58-.33-.1.11-.23.22-.32.33Z" fill="#135591"/>
    <path d="M100.32,24.95c1.02,0,2.47.39,2.44-1.38-.02-1.4-1.07-1.88-2.32-1.88-6.87,0-13.74,0-20.61,0,4.96.44,9.72,1.56,14.19,3.26,2.1,0,4.2,0,6.3,0Z" fill="#135591"/>
    <path d="M42.15,11.87c.37,7.34,3.13,12.1,7.14,16.17,2.22-1.22,4.53-2.28,6.93-3.17-5.23-3.23-10.09-7.25-14.07-12.99Z" fill="#135591"/>
    <path d="M57.12,21.69c.77.81,1.53,1.52,2.33,2.08,3.45-1.04,7.04-1.75,10.74-2.08-4.36,0-8.71,0-13.07,0Z" fill="#135591"/>
    <path d="M43.18,124.53c.63-1.83,1.48-3.38,2.49-4.73-.87-.57-1.73-1.16-2.56-1.78-.82,2.04-1.5,4.03.07,6.51Z" fill="#135591"/>
    <path d="M42.54,126.39c-.37,12.79,3.56,18.8,15.69,16.5-7.28-4.51-14.17-8-15.69-16.5Z" fill="#135591"/>
    <path d="M97.88,138.03c-13.6-.01-27.21,0-40.81,0-.08.58-.16,1.16-.24,1.74,15.11,3.66,30.59.55,46.05,1.86-.28-4.13-2.82-3.6-4.99-3.6Z" fill="#135591"/>
    <path d="M49.98,15.17c14.13-.09,28.27-.04,42.4-.04,0-.65-.01-1.31-.02-1.96-15.24-3.29-30.77-.57-46.2-1.64.29,2.86,1.49,3.67,3.82,3.65Z" fill="#135591"/>
    <path d="M91.64,130.26c-14.96-3.02-30.09-1.05-46.18-1.83,3.59,3.31,33.94,4.34,46.18,1.83Z" fill="#135591"/>
    <path d="M128.54,75.01c0-17.69-8.58-33.37-21.8-43.12-1.08,4.92-3.55,9.72-7.65,13.71-5.06,4.92-11.06,8.51-17.3,11.68-6.05,3.07-12.13,6.07-18.26,8.99-7.97,3.79-15.77,7.77-21.04,16.92-.38-7.78,2.99-12.44,7.1-16.58,6.19-6.25,13.91-10.23,21.69-14.16,9.4-4.74,19.45-8.3,27.92-14.76,0,0,3.24-2.86,4.28-3.85.86-.83,1.5-1.81,1.96-2.86-3.52-2.44-7.35-4.46-11.41-6.01-10.34,0-20.68,0-31.03,0-1.36,0-2.49-.46-3.55-1.2-1.09.33-2.17.7-3.23,1.09,10.19,6.29,21.82,9.55,31.34,16.38-5.27,4.19-10.08,5.08-16.2,1.47-7.47-4.41-15.37-8.08-21.65-14.24-.14-.14-.27-.29-.41-.43-16.59,9.1-27.83,26.72-27.83,46.97,0,17.62,8.51,33.25,21.65,43.01.07-.16.13-.32.2-.48,2.61-6.41,7.46-10.85,12.9-14.72,9.59-6.83,20.53-11.12,30.95-16.39,5.72-2.89,11.56-5.69,15.89-10.68,4.78-5.51,4.69-9.76.56-15.19-1.85-2.43-11.98-5.17-9.79-7.3,4.51-4.39,6.01-4.4,9.92,1.58,7.02,10.73,4.91,23.99-5.35,33.19-7.84,7.03-17.27,11.42-26.66,15.87-6.81,3.23-13.76,6.22-20.05,10.46-2.27,1.53-4.37,3.23-6.02,5.45.9.59,1.81,1.15,2.75,1.68,3.83-4.2,17.63-4.17,24.59.33h-24.01c7.7,4.29,16.56,6.74,26,6.74,5.1,0,10.03-.73,14.7-2.06-9.26-4.77-18.72-9.24-28.44-14.02,5.22-4.08,9.7-5.93,15.94-2.31,7.14,4.15,14.67,7.66,20.81,13.2,18.06-8.61,30.54-27.02,30.54-48.36ZM75.77,31.13c8.36,0,15.89.05,23.42-.03,2.5-.02,2.31,1.83,1.53,2.29-6.4,2.48-19.34,1.58-24.94-2.26ZM46.17,99.31c-2.57-3.67-4.97-7.46-3.17-12.89,2.07,6.64,7.26,9.69,12.1,13.07-5.01,5.34-5.05,5.37-8.94-.18ZM47.69,90.07h24.08c-4.19,3.55-19.1,3.86-24.08,0ZM85.16,83.3c-12.83-.04-25.66-.02-38.84-.02.13-3.42,2.11-3.46,4.36-3.45,13.78.05,27.56.03,42.03.03-2.35,2.55-4.69,3.45-7.55,3.44ZM102.76,71.52c-.19,2.05-2.08,1.8-3.57,1.8-13.93,0-27.86,0-43.05,0,3.31-2.5,5.54-3.48,8.33-3.46,11.69.1,23.37,0,35.06.1,1.14,0,3.5-1.23,3.24,1.56ZM101.72,60.55s0,0,0,0c-.15,3.04-1.78,3.56-4.63,3.45-6.76-.28-13.54-.09-21.32-.09,2.69-2.57,5.09-3.52,8.06-3.47,5.96.1,11.92.08,17.89.11Z" fill="#135591"/>
    <path d="M75,21.46c-1.62,0-3.22.08-4.81.23,3.21,0,6.43,0,9.64,0-1.59-.14-3.2-.23-4.83-.23Z" fill="#135591"/>
  </g>
</svg>