<?xml version="1.0" encoding="UTF-8"?><svg id="Layer_1" xmlns="http://www.w3.org/2000/svg" viewBox="0 0 159.9 72.04"><defs><style>.cls-1{fill:#211731;}.cls-2{fill:#135591;}</style></defs><path class="cls-1" d="m80.55,10.8c-.32.06-.56.1-.72.1-.42,0-.72-.08-.91-.24-.19-.16-.34-.34-.43-.53-.83-1.83-1.83-3.16-2.98-3.99-1.15-.83-2.73-1.25-4.71-1.25-.77,0-1.5.1-2.19.31-.69.21-1.29.51-1.8.91-.51.4-.92.89-1.23,1.47-.3.58-.46,1.22-.46,1.92,0,1.51.63,2.74,1.9,3.7,1.27.96,3.13,1.94,5.6,2.93,3.08,1.22,5.35,2.57,6.8,4.06,1.46,1.49,2.19,3.33,2.19,5.51,0,1.31-.2,2.54-.6,3.68-.4,1.14-1.03,2.13-1.88,2.98-.85.85-1.95,1.52-3.29,2-1.35.48-2.97.72-4.86.72-1.99,0-3.79-.21-5.41-.62-1.62-.42-2.99-.96-4.11-1.64-.1-1.35-.24-2.65-.43-3.9-.19-1.25-.42-2.5-.67-3.75.22-.1.5-.14.82-.14.38,0,.68.09.89.26.21.18.39.46.55.84.8,2.31,1.83,4.01,3.1,5.1,1.27,1.09,3.04,1.63,5.31,1.63,1.03,0,1.92-.14,2.69-.43s1.41-.69,1.92-1.2c.51-.51.9-1.09,1.15-1.73.26-.64.38-1.33.38-2.07,0-1.67-.57-2.98-1.71-3.94s-2.76-1.83-4.88-2.6c-1.38-.51-2.63-1.05-3.75-1.61-1.12-.56-2.08-1.21-2.89-1.95-.8-.74-1.42-1.59-1.85-2.57-.43-.98-.65-2.14-.65-3.49,0-1.19.22-2.3.65-3.34.43-1.04,1.06-1.95,1.88-2.72.82-.77,1.8-1.38,2.96-1.83,1.15-.45,2.45-.67,3.9-.67s2.95.14,4.33.43c1.38.29,2.93.77,4.67,1.44.06.96.15,2,.26,3.1.11,1.11.26,2.14.46,3.1Z"/><path class="cls-1" d="m91.79,14.01v8.62h5.25c.45,0,.77-.22.96-.66.19-.44.34-.97.45-1.6.07-.29.27-.44.61-.44.07,0,.16.01.27.03.11.02.2.05.27.07-.04.49-.08,1.06-.12,1.68-.03.63-.05,1.18-.05,1.65,0,.38.01.85.03,1.4.02.55.07,1.17.13,1.87-.18.04-.35.07-.5.07-.36,0-.57-.15-.64-.44-.11-.63-.26-1.16-.45-1.6-.19-.44-.51-.66-.96-.66h-5.25v7.94c0,.47.3.79.91.94.61.16,1.6.24,3,.24h1.85c.65,0,1.22-.1,1.7-.29.48-.19.91-.45,1.28-.77.37-.33.7-.71.99-1.16.29-.45.57-.94.84-1.48.07-.16.24-.24.5-.24.11,0,.23.03.35.1.12.07.24.13.35.2-.2.43-.38.94-.52,1.53-.15.59-.29,1.16-.42,1.7s-.28,1-.42,1.38c-.15.38-.33.57-.56.57-.18,0-.44-.01-.77-.03-.34-.02-.7-.04-1.09-.05s-.79-.03-1.2-.05c-.4-.02-.75-.03-1.04-.03h-7.37c-.65,0-1.35.02-2.09.05-.74.03-1.45.07-2.12.12-.05-.22-.07-.4-.07-.54,0-.31.11-.49.34-.54.85-.16,1.46-.33,1.83-.51.37-.18.56-.49.56-.94V15.02c0-.45-.16-.76-.49-.93-.33-.17-.96-.34-1.9-.52-.22-.04-.34-.24-.34-.57,0-.11,0-.21.02-.29.01-.08.03-.16.05-.25.96.07,1.77.11,2.42.13.65.02,1.23.03,1.75.03h6.63c1.01,0,1.88-.03,2.63-.1.74-.07,1.23-.1,1.48-.1.29,0,.49.19.59.56.1.37.18.81.25,1.33.07.52.15,1.07.24,1.65.09.58.26,1.08.5,1.48-.18.13-.38.2-.61.2-.29,0-.48-.1-.57-.3-.27-.58-.53-1.08-.77-1.5-.25-.42-.53-.76-.86-1.03-.33-.27-.72-.47-1.18-.61-.46-.13-1.03-.2-1.7-.2h-4.98Z"/><path class="cls-1" d="m118.82,34.68c.96.2,1.86.59,2.68,1.16s1.59,1.15,2.31,1.73c.72.58,1.4,1.1,2.04,1.57.64.46,1.27.69,1.9.69.31,0,.61-.05.88-.15.27-.1.52-.15.74-.15.11,0,.17.06.17.17-.07.27-.24.51-.51.72-.27.21-.57.39-.91.54-.34.15-.68.25-1.03.32s-.63.1-.86.1c-.79,0-1.53-.14-2.24-.42s-1.39-.64-2.04-1.08c-.65-.44-1.29-.92-1.9-1.45-.62-.53-1.21-1.03-1.77-1.52-.56-.48-1.11-.91-1.65-1.3-.54-.38-1.05-.64-1.55-.77-1.46-.16-2.77-.54-3.94-1.14s-2.17-1.4-3-2.37-1.47-2.12-1.92-3.43c-.45-1.31-.67-2.75-.67-4.33s.28-3.01.84-4.38c.56-1.37,1.32-2.57,2.29-3.6s2.09-1.85,3.37-2.46,2.63-.91,4.04-.91c1.95,0,3.66.31,5.12.93,1.46.62,2.67,1.45,3.62,2.49.95,1.04,1.67,2.25,2.14,3.62.47,1.37.71,2.81.71,4.31s-.21,2.81-.64,4.06c-.43,1.25-1.03,2.34-1.8,3.28-.77.94-1.71,1.73-2.79,2.36-1.09.63-2.29,1.06-3.62,1.28v.13Zm-1.68-1.38c1.05,0,2.02-.2,2.9-.61.88-.4,1.63-.96,2.25-1.68.63-.72,1.12-1.57,1.46-2.56.35-.99.52-2.06.52-3.23,0-1.62-.17-3.11-.5-4.49-.34-1.38-.85-2.58-1.53-3.6-.69-1.02-1.55-1.82-2.59-2.41-1.04-.58-2.26-.88-3.65-.88-.92,0-1.8.17-2.64.52-.84.35-1.58.85-2.22,1.52s-1.15,1.48-1.53,2.44c-.38.97-.57,2.08-.57,3.33,0,1.66.18,3.2.54,4.63s.88,2.66,1.57,3.7c.68,1.04,1.53,1.86,2.54,2.44s2.17.88,3.47.88Z"/><path class="cls-1" d="m76.03,70.84c-2.69,0-5.05-.42-7.07-1.25-2.02-.83-3.7-1.98-5.03-3.44-1.33-1.46-2.33-3.17-2.98-5.15-.66-1.97-.99-4.1-.99-6.37,0-1.89.33-3.8.99-5.72.66-1.92,1.65-3.66,2.98-5.22,1.33-1.55,3-2.82,5.03-3.8,2.02-.98,4.38-1.47,7.07-1.47,1.06,0,2.03.02,2.91.07.88.05,1.72.13,2.52.24.8.11,1.59.26,2.36.43.77.18,1.57.38,2.4.6.03.87.14,1.92.34,3.17.19,1.25.45,2.52.77,3.8-.26.13-.51.19-.77.19s-.49-.03-.7-.1c-.21-.06-.34-.24-.41-.53-.58-2.12-1.49-3.62-2.74-4.52-1.25-.9-3.06-1.35-5.43-1.35-1.99,0-3.74.32-5.27.96-1.52.64-2.81,1.54-3.85,2.69s-1.83,2.54-2.36,4.16c-.53,1.62-.79,3.42-.79,5.41,0,2.21.34,4.25,1.01,6.11.67,1.86,1.58,3.46,2.72,4.81,1.14,1.35,2.47,2.39,3.99,3.13,1.52.74,3.15,1.11,4.88,1.11,1.38,0,2.54-.14,3.49-.41.95-.27,1.73-.67,2.36-1.18.62-.51,1.15-1.15,1.59-1.9.43-.75.84-1.61,1.23-2.57.22-.48.61-.72,1.15-.72.16,0,.33.02.51.07.18.05.31.1.41.17-.38,1.12-.77,2.36-1.15,3.7-.38,1.35-.71,2.69-.96,4.04-1.57.26-3.17.46-4.81.6-1.63.14-3.43.22-5.39.22Z"/><path class="cls-1" d="m91.49,59.32c0-1.55.28-3.01.84-4.38.56-1.37,1.32-2.57,2.29-3.6s2.09-1.85,3.37-2.46,2.63-.91,4.04-.91c1.95,0,3.66.31,5.12.93,1.46.62,2.67,1.45,3.62,2.49.95,1.04,1.67,2.25,2.14,3.62.47,1.37.71,2.81.71,4.31,0,1.77-.29,3.36-.88,4.76-.58,1.4-1.39,2.59-2.41,3.57-1.02.98-2.22,1.72-3.6,2.24-1.38.52-2.86.77-4.43.77s-3.05-.27-4.38-.81-2.46-1.31-3.42-2.31c-.95-1-1.69-2.19-2.22-3.58-.53-1.39-.79-2.94-.79-4.65Zm11.58,9.73c1.05,0,2.02-.2,2.9-.61.88-.4,1.63-.96,2.25-1.68.63-.72,1.12-1.57,1.46-2.56.35-.99.52-2.06.52-3.23,0-1.62-.17-3.11-.5-4.49-.34-1.38-.85-2.58-1.53-3.6-.69-1.02-1.55-1.82-2.59-2.41-1.04-.58-2.26-.88-3.65-.88-.92,0-1.8.17-2.64.52-.84.35-1.58.85-2.22,1.52s-1.15,1.48-1.53,2.44c-.38.97-.57,2.08-.57,3.33,0,1.66.18,3.2.54,4.63s.88,2.66,1.57,3.7c.68,1.04,1.53,1.86,2.54,2.44s2.17.88,3.47.88Z"/><path class="cls-1" d="m139.16,59.32c0,1.32-.23,2.64-.69,3.94-.46,1.3-1.16,2.47-2.09,3.52-.93,1.04-2.11,1.88-3.53,2.52-1.43.64-3.09.96-5,.96h-6.9c-.58,0-1.25.02-1.99.05-.74.03-1.46.07-2.15.12-.05-.22-.07-.4-.07-.54,0-.31.12-.49.37-.54.83-.2,1.42-.39,1.78-.57.36-.18.54-.47.54-.88v-17.13c0-.45-.17-.76-.5-.94-.34-.18-.94-.35-1.82-.5-.13-.02-.23-.09-.29-.2-.06-.11-.08-.24-.08-.37s.02-.31.07-.54c.47.05.88.07,1.23.08.35.01.68.03.99.05.31.02.62.03.93.03h7.86c1.88,0,3.54.29,4.96.88,1.42.58,2.61,1.37,3.55,2.36.94.99,1.65,2.14,2.12,3.47.47,1.32.71,2.74.71,4.24Zm-3.53.64c0-3.46-.86-6.02-2.58-7.69-1.72-1.67-4.22-2.51-7.52-2.51h-2.93v17.91c0,.22.06.42.17.57.11.16.3.28.57.37.27.09.64.16,1.11.2.47.05,1.07.07,1.78.07,1.73,0,3.19-.21,4.38-.62,1.19-.42,2.15-1.01,2.89-1.78.74-.77,1.28-1.71,1.62-2.81.34-1.1.5-2.33.5-3.7Z"/><path class="cls-1" d="m148.11,49.76v8.62h5.25c.45,0,.77-.22.96-.66.19-.44.34-.97.45-1.6.07-.29.27-.44.61-.44.07,0,.16.01.27.03.11.02.2.05.27.07-.04.49-.08,1.06-.12,1.68-.03.63-.05,1.18-.05,1.65,0,.38.01.85.03,1.4.02.55.07,1.17.13,1.87-.18.04-.35.07-.5.07-.36,0-.57-.15-.64-.44-.11-.63-.26-1.16-.45-1.6-.19-.44-.51-.66-.96-.66h-5.25v7.94c0,.47.3.79.91.94.61.16,1.6.24,3,.24h1.85c.65,0,1.22-.1,1.7-.29.48-.19.91-.45,1.28-.77.37-.33.7-.71.99-1.16.29-.45.57-.94.84-1.48.07-.16.24-.24.5-.24.11,0,.23.03.35.1.12.07.24.13.35.2-.2.43-.38.94-.52,1.53-.15.59-.29,1.16-.42,1.7s-.28,1-.42,1.38c-.15.38-.33.57-.56.57-.18,0-.44-.01-.77-.03-.34-.02-.7-.04-1.09-.05s-.79-.03-1.2-.05c-.4-.02-.75-.03-1.04-.03h-7.37c-.65,0-1.35.02-2.09.05-.74.03-1.45.07-2.12.12-.05-.22-.07-.4-.07-.54,0-.31.11-.49.34-.54.85-.16,1.46-.33,1.83-.51.37-.18.56-.49.56-.94v-17.13c0-.45-.16-.76-.49-.93-.33-.17-.96-.34-1.9-.52-.22-.04-.34-.24-.34-.57,0-.11,0-.21.02-.29.01-.08.03-.16.05-.25.96.07,1.77.11,2.42.13.65.02,1.23.03,1.75.03h6.63c1.01,0,1.88-.03,2.63-.1.74-.07,1.23-.1,1.48-.1.29,0,.49.19.59.56.1.37.18.81.25,1.33.07.52.15,1.07.24,1.65.09.58.26,1.08.5,1.48-.18.13-.38.2-.61.2-.29,0-.48-.1-.57-.3-.27-.58-.53-1.08-.77-1.5-.25-.42-.53-.76-.86-1.03-.33-.27-.72-.47-1.18-.61-.46-.13-1.03-.2-1.7-.2h-4.98Z"/><path class="cls-2" d="m40.44.14c-.86-.63-2.58.99-2.4,1.71.69,2.72,3.44,2.89,5.24,5.1,1.43,1.76,1.75,4.05.96,5.86.23.16.46.32.69.49,1.11-5.02-.59-10.29-4.49-13.16Z"/><path class="cls-2" d="m37.45,63.91c3.22,1.69,6.49,3.53,7.6,7.55.66-3.45-1.05-6.06-3.17-8.42-.49-.55-1.01-1.05-1.55-1.54-1.4.67-2.86,1.22-4.38,1.65.5.26,1,.5,1.49.76Z"/><path class="cls-2" d="m14.04,60.68h.47c-.1-.06-.2-.12-.31-.18-.05.06-.12.11-.17.18Z"/><path class="cls-2" d="m41.55,9.65c.54,0,1.3.21,1.28-.72-.01-.74-.57-.99-1.22-.99-3.62,0-7.24,0-10.86,0,2.61.23,5.12.82,7.48,1.72,1.11,0,2.21,0,3.32,0Z"/><path class="cls-2" d="m10.9,2.75c.2,3.87,1.65,6.37,3.76,8.52,1.17-.64,2.39-1.2,3.65-1.67-2.76-1.7-5.31-3.82-7.41-6.85Z"/><path class="cls-2" d="m18.79,7.93c.41.43.81.8,1.23,1.1,1.82-.55,3.71-.92,5.66-1.09-2.3,0-4.59,0-6.89,0Z"/><path class="cls-2" d="m11.45,62.11c.33-.96.78-1.78,1.31-2.49-.46-.3-.91-.61-1.35-.94-.43,1.07-.79,2.12.04,3.43Z"/><path class="cls-2" d="m11.11,63.09c-.2,6.74,1.88,9.91,8.27,8.69-3.83-2.38-7.47-4.21-8.27-8.69Z"/><path class="cls-2" d="m40.27,69.23c-7.17,0-14.34,0-21.5,0-.04.31-.08.61-.13.92,7.96,1.93,16.12.29,24.26.98-.15-2.17-1.49-1.89-2.63-1.9Z"/><path class="cls-2" d="m15.03,4.49c7.45-.04,14.89-.02,22.34-.02,0-.35,0-.69,0-1.04-8.03-1.74-16.21-.3-24.34-.87.15,1.51.79,1.93,2.01,1.92Z"/><path class="cls-2" d="m36.98,65.13c-7.88-1.59-15.86-.55-24.33-.96,1.89,1.74,17.89,2.29,24.33.96Z"/><path class="cls-2" d="m56.42,36.02c0-9.32-4.52-17.58-11.49-22.72-.57,2.59-1.87,5.12-4.03,7.22-2.67,2.59-5.83,4.49-9.12,6.15-3.19,1.62-6.39,3.2-9.62,4.74-4.2,2-8.31,4.1-11.08,8.92-.2-4.1,1.57-6.55,3.74-8.74,3.26-3.29,7.33-5.39,11.43-7.46,4.95-2.5,10.25-4.37,14.71-7.78,0,0,1.71-1.5,2.25-2.03.45-.44.79-.95,1.03-1.51-1.86-1.28-3.87-2.35-6.01-3.16-5.45,0-10.9,0-16.35,0-.72,0-1.31-.24-1.87-.63-.58.17-1.14.37-1.7.58,5.37,3.32,11.5,5.03,16.51,8.63-2.78,2.21-5.31,2.68-8.54.77-3.94-2.32-8.1-4.26-11.41-7.5-.08-.07-.14-.15-.22-.23C5.93,16.06,0,25.35,0,36.02c0,9.28,4.49,17.52,11.41,22.66.03-.08.07-.17.1-.25,1.38-3.38,3.93-5.71,6.8-7.76,5.05-3.6,10.82-5.86,16.31-8.64,3.02-1.52,6.09-3,8.37-5.63,2.52-2.9,2.47-5.14.3-8-.97-1.28-6.31-2.73-5.16-3.85,2.38-2.31,3.16-2.32,5.23.83,3.7,5.65,2.59,12.64-2.82,17.49-4.13,3.71-9.1,6.02-14.05,8.36-3.59,1.7-7.25,3.28-10.56,5.51-1.2.81-2.3,1.7-3.17,2.87.47.31.96.6,1.45.89,2.02-2.21,9.29-2.2,12.96.18h-12.65c4.06,2.26,8.73,3.55,13.7,3.55,2.69,0,5.28-.38,7.75-1.09-4.88-2.51-9.86-4.87-14.99-7.39,2.75-2.15,5.11-3.13,8.4-1.22,3.76,2.19,7.73,4.04,10.96,6.95,9.51-4.53,16.09-14.24,16.09-25.48ZM28.62,12.9c4.41,0,8.37.02,12.34-.01,1.32-.01,1.22.97.8,1.2-3.37,1.31-10.19.83-13.14-1.19Zm-15.59,35.93c-1.35-1.94-2.62-3.93-1.67-6.79,1.09,3.5,3.82,5.11,6.38,6.89-2.64,2.82-2.66,2.83-4.71-.1Zm.8-4.87h12.69c-2.21,1.87-10.06,2.03-12.69,0Zm19.74-3.57c-6.76-.02-13.52,0-20.47,0,.07-1.8,1.11-1.82,2.3-1.82,7.26.03,14.52.01,22.15.01-1.24,1.34-2.47,1.82-3.98,1.81Zm9.27-6.21c-.1,1.08-1.1.95-1.88.95-7.34,0-14.68,0-22.68,0,1.74-1.32,2.92-1.83,4.39-1.82,6.16.05,12.31,0,18.47.05.6,0,1.84-.65,1.7.82Zm-.55-5.78s0,0,0,0c-.08,1.6-.94,1.88-2.44,1.82-3.56-.15-7.14-.05-11.23-.05,1.42-1.35,2.68-1.85,4.25-1.83,3.14.05,6.28.04,9.42.06Z"/><path class="cls-2" d="m28.21,7.81c-.85,0-1.7.04-2.53.12,1.69,0,3.39,0,5.08,0-.84-.08-1.69-.12-2.54-.12Z"/></svg>