<?xml version="1.0" encoding="utf-8"?>
<!-- Generator: Adobe Illustrator 27.0.1, SVG Export Plug-In . SVG Version: 6.00 Build 0)  -->
<svg version="1.1" id="Layer_1" xmlns="http://www.w3.org/2000/svg" xmlns:xlink="http://www.w3.org/1999/xlink" x="0px" y="0px"
	 viewBox="0 0 841.89 438.51" style="enable-background:new 0 0 841.89 438.51;" xml:space="preserve">
<style type="text/css">
	.st0{fill:#FFFFFF;stroke:#000000;stroke-miterlimit:10;}
	.st1{font-family:'MyriadPro-Bold';}
	.st2{font-size:12px;}
	.st3{font-family:'MyriadPro-Regular';}
	.st4{fill:none;stroke:#ABABAB;stroke-miterlimit:10;}
	.st5{font-size:19px;}
	.st6{font-family:'MyriadPro-It';}
</style>
<rect x="290.07" y="66.09" class="st0" width="261.75" height="30"/>
<text transform="matrix(1 0 0 1 364.6293 84.6123)" class="st1 st2">SeqCode Community</text>
<rect x="290.07" y="116.09" class="st0" width="261.75" height="30"/>
<text transform="matrix(1 0 0 1 377.7391 134.6123)" class="st1 st2">Executive Board</text>
<rect x="290.07" y="146.09" class="st0" width="261.75" height="140"/>
<text transform="matrix(1 0 0 1 407.8768 162.0125)"><tspan x="0" y="0" class="st3 st2">Chair</tspan><tspan x="-12.29" y="14.4" class="st3 st2">Vice-Chair</tspan><tspan x="-10.22" y="28.8" class="st3 st2">Secretary</tspan><tspan x="-60.07" y="43.2" class="st3 st2">Legislative Commission Chair</tspan><tspan x="-68.87" y="57.6" class="st3 st2">Reconciliation Commission Chair</tspan><tspan x="-66.06" y="72" class="st3 st2">Standards Working Group Chair</tspan><tspan x="-103.05" y="86.4" class="st3 st2">Registry &amp; Nomenclature Working Group Chair</tspan><tspan x="-52.01" y="100.8" class="st3 st2">Member without Portfolio</tspan><tspan x="-52.01" y="115.2" class="st3 st2">Member without Portfolio</tspan></text>
<polyline class="st4" points="151.87,356.09 161.87,356.09 161.01,201.09 330.07,201.09 "/>
<polyline class="st4" points="321.96,356.09 331.96,356.09 331.71,296.09 280.07,296.09 280.07,215.09 320.07,215.09 "/>
<polyline class="st4" points="491.88,356.09 501.88,356.09 501.56,296.09 571.5,296.09 571.02,245.09 541.82,245.09 "/>
<rect x="180.07" y="306.09" class="st0" width="141.75" height="40"/>
<text transform="matrix(1 0 0 1 212.8993 322.4119)"><tspan x="0" y="0" class="st1 st2">Reconciliation</tspan><tspan x="5.22" y="14.4" class="st1 st2">Commission</tspan></text>
<rect x="10.07" y="306.09" class="st0" width="141.75" height="40"/>
<text transform="matrix(1 0 0 1 51.9413 322.4119)"><tspan x="0" y="0" class="st1 st2">Legislative</tspan><tspan x="-3.82" y="14.4" class="st1 st2">Commission</tspan></text>
<rect x="350.07" y="306.09" class="st0" width="141.75" height="40"/>
<text transform="matrix(1 0 0 1 354.2318 322.4119)"><tspan x="0" y="0" class="st1 st2">Registry &amp; Nomenclature</tspan><tspan x="25.59" y="14.4" class="st1 st2">Working Group</tspan></text>
<rect x="690.07" y="306.09" class="st0" width="141.75" height="40"/>
<text transform="matrix(1 0 0 1 707.6712 322.4119)"><tspan x="0" y="0" class="st1 st2">Subcommittees and</tspan><tspan x="9.55" y="14.4" class="st1 st2">Working Groups</tspan></text>
<rect x="10.07" y="346.09" class="st0" width="141.75" height="80"/>
<g>
	<text transform="matrix(1 0 0 1 67.8768 360.8123)"><tspan x="0" y="0" class="st3 st2">Chair</tspan><tspan x="-12.29" y="14.4" class="st3 st2">Vice-Chair</tspan><tspan x="-10.22" y="28.8" class="st3 st2">Secretary</tspan><tspan x="-35.59" y="43.2" class="st3 st2">Additional Member</tspan><tspan x="-47.63" y="57.6" class="st3 st2">Opt. Additional Member</tspan></text>
</g>
<rect x="180.07" y="346.09" class="st0" width="141.75" height="80"/>
<g>
	<text transform="matrix(1 0 0 1 237.8766 360.8123)"><tspan x="0" y="0" class="st3 st2">Chair</tspan><tspan x="-12.29" y="14.4" class="st3 st2">Vice-Chair</tspan><tspan x="-10.22" y="28.8" class="st3 st2">Secretary</tspan><tspan x="-37.96" y="43.2" class="st3 st2">Additional Members</tspan><tspan x="-16.82" y="57.6" class="st3 st2">(one to five)</tspan></text>
</g>
<rect x="350.07" y="346.09" class="st0" width="141.75" height="80"/>
<g>
	<text transform="matrix(1 0 0 1 407.8766 360.8123)"><tspan x="0" y="0" class="st3 st2">Chair</tspan><tspan x="-10.22" y="14.4" class="st3 st2">Secretary</tspan><tspan x="-35.5" y="28.8" class="st3 st2">Co-opted Members </tspan><tspan x="-13.91" y="43.2" class="st3 st2">(up to five)</tspan></text>
</g>
<rect x="690.07" y="346.09" class="st0" width="141.75" height="80"/>
<g>
	<text transform="matrix(1 0 0 1 747.8768 360.8123)"><tspan x="0" y="0" class="st3 st2">Chair</tspan><tspan x="-10.22" y="14.4" class="st3 st2">Secretary</tspan><tspan x="-37.96" y="28.8" class="st3 st2">Additional Members </tspan><tspan x="-24.7" y="43.2" class="st3 st2">(three or more)</tspan></text>
</g>
<polyline class="st4" points="661.82,356.09 671.82,356.09 670.96,231.09 521.82,231.09 "/>
<rect x="520.07" y="306.09" class="st0" width="141.75" height="40"/>
<text transform="matrix(1 0 0 1 563.6151 322.4119)"><tspan x="0" y="0" class="st1 st2">Standards</tspan><tspan x="-13.79" y="14.4" class="st1 st2">Working Group</tspan></text>
<rect x="520.07" y="346.09" class="st0" width="141.75" height="80"/>
<g>
	<text transform="matrix(1 0 0 1 577.8768 360.8123)"><tspan x="0" y="0" class="st3 st2">Chair</tspan><tspan x="-10.22" y="14.4" class="st3 st2">Secretary</tspan><tspan x="-35.5" y="28.8" class="st3 st2">Co-opted Members </tspan><tspan x="-13.91" y="43.2" class="st3 st2">(up to five)</tspan></text>
</g>
<text transform="matrix(1 0 0 1 334.3344 22.4123)"><tspan x="0" y="0" class="st1 st5">SeqCode Committee</tspan><tspan x="-105.8" y="15" class="st6 st2">The Committee on the Systematics of Prokaryotes Described from Sequence Data</tspan></text>
</svg>
